<svg width="145" height="102" viewBox="0 0 145 102" fill="none" xmlns="http://www.w3.org/2000/svg">
<path d="M123.25 36.4286H119.625L94.9795 5.46884C93.6207 3.76258 91.8975 2.38518 89.9375 1.43855C87.9774 0.491914 85.8306 0.000273236 83.6559 0H35.192C29.2628 0 23.9318 3.62692 21.7296 9.15951L10.875 36.9431C4.63094 38.5687 0 44.2175 0 51V76.5C0 78.5127 1.62219 80.1429 3.625 80.1429H14.5C14.5 92.2144 24.2377 102 36.25 102C48.2623 102 58 92.2144 58 80.1429H87C87 92.2144 96.7377 102 108.75 102C120.762 102 130.5 92.2144 130.5 80.1429H141.375C143.378 80.1429 145 78.5127 145 76.5V58.2857C145 46.2142 135.262 36.4286 123.25 36.4286ZM36.25 91.0714C30.2529 91.0714 25.375 86.1695 25.375 80.1429C25.375 74.1162 30.2529 69.2143 36.25 69.2143C42.2471 69.2143 47.125 74.1162 47.125 80.1429C47.125 86.1695 42.2471 91.0714 36.25 91.0714ZM52.5625 36.4286H26.492L35.192 14.5714H52.5625V36.4286ZM63.4375 36.4286V14.5714H83.6559L101.056 36.4286H63.4375ZM108.75 91.0714C102.753 91.0714 97.875 86.1695 97.875 80.1429C97.875 74.1162 102.753 69.2143 108.75 69.2143C114.747 69.2143 119.625 74.1162 119.625 80.1429C119.625 86.1695 114.747 91.0714 108.75 91.0714Z" fill="#FF3636"/>
</svg>
