<svg width="37" height="37" viewBox="0 0 37 37" fill="none" xmlns="http://www.w3.org/2000/svg">
<path d="M27.3388 9.65884C22.4561 4.7761 14.5439 4.7761 9.66117 9.65884C4.77842 14.5416 4.77842 22.4538 9.66117 27.3365C14.5439 32.2193 22.4561 32.2193 27.3388 27.3365C32.2216 22.4538 32.2216 14.5416 27.3388 9.65884ZM22.6343 24.6278C22.3991 24.8631 22.0141 24.8631 21.7789 24.6278L18.5 21.3489L15.2211 24.6278C14.9859 24.8631 14.6009 24.8631 14.3657 24.6278L12.3698 22.632C12.1346 22.3967 12.1346 22.0118 12.3698 21.7766L15.6488 18.4977L12.3698 15.2188C12.1346 14.9835 12.1346 14.5986 12.3698 14.3634L14.3657 12.3675C14.6009 12.1323 14.9859 12.1323 15.2211 12.3675L18.5 15.6464L21.7789 12.3675C22.0141 12.1323 22.3991 12.1323 22.6343 12.3675L24.6302 14.3634C24.8654 14.5986 24.8654 14.9835 24.6302 15.2188L21.3512 18.4977L24.6302 21.7766C24.8654 22.0118 24.8654 22.3967 24.6302 22.632L22.6343 24.6278Z" fill="black"/>
</svg>
