<svg width="50" height="50" viewBox="0 0 50 50" fill="none" xmlns="http://www.w3.org/2000/svg">
<path d="M22.7456 49.9742C22.2561 49.7424 21.715 49.7939 21.1997 49.7166C11.3833 48.3253 3.06116 40.9565 0.793842 31.2946C-1.57654 21.1174 1.38644 12.5634 9.34783 5.78723C10.6103 4.67933 12.3623 4.85969 13.4445 6.07065C14.4751 7.25584 14.372 9.03362 13.1353 10.1158C11.847 11.2494 10.6103 12.4088 9.57971 13.7744C7.33816 16.7889 6.07567 20.1899 5.84378 23.9516C5.58613 28.2286 6.6425 32.1706 9.01288 35.7262C11.3317 39.1787 14.4493 41.6264 18.3656 43.0434C21.5089 44.1771 24.7295 44.4863 28.0017 43.8679C33.9792 42.76 38.5138 39.5394 41.4253 34.2576C45.7538 26.3735 43.976 16.6601 37.174 10.7856C36.633 10.3219 36.0404 9.90963 35.7312 9.23974C35.1644 8.00302 35.4735 6.53442 36.5299 5.70994C37.612 4.85969 39.1064 4.83392 40.2143 5.76147C45.2385 9.8581 48.4076 15.0626 49.2836 21.4781C50.5461 30.6247 47.5573 38.2512 40.575 44.2802C36.9164 47.4493 32.5621 49.227 27.744 49.8196C27.3833 49.8712 26.9711 49.7939 26.6361 50C26.5331 50 26.43 50 26.3527 50C26.2754 49.9227 26.1981 49.9485 26.1208 49.9485C26.0436 49.9485 25.9663 49.9485 25.8632 49.9485C25.7601 49.9742 25.6571 49.9227 25.554 50C24.9357 50 24.3173 50 23.6989 50C23.6216 49.9227 23.5186 49.9485 23.4155 49.9485C23.3382 49.9485 23.2609 49.9227 23.2094 50C23.0548 49.9742 22.9002 49.9742 22.7456 49.9742Z" fill="#D1D1D1"/>
<path d="M23.4156 49.897C23.5186 49.897 23.6474 49.8454 23.7247 49.9742C23.6217 49.9742 23.5186 49.9742 23.4413 49.9742C23.4156 49.9485 23.3898 49.9485 23.4156 49.9227C23.3898 49.897 23.4156 49.897 23.4156 49.897Z" fill="#585758"/>
<path d="M25.5798 49.9743C25.6571 49.8454 25.7601 49.8712 25.8889 49.897C25.9147 49.9227 25.9147 49.9485 25.9147 49.9485C25.9147 49.9743 25.8889 49.9743 25.8889 49.9743C25.7601 49.9743 25.6571 49.9743 25.5798 49.9743Z" fill="#414042"/>
<path d="M25.8631 49.9742C25.8631 49.9484 25.8631 49.9227 25.8631 49.8969C25.9662 49.8969 26.0692 49.8969 26.1465 49.8969C26.1723 49.9227 26.1723 49.9484 26.1723 49.9484C26.1723 49.9742 26.1465 49.9742 26.1465 49.9742C26.0435 49.9742 25.9662 49.9742 25.8631 49.9742Z" fill="#575658"/>
<path d="M23.4155 49.897C23.4155 49.9227 23.4155 49.9485 23.4155 49.9743C23.3383 49.9743 23.2867 49.9743 23.2094 49.9743C23.2352 49.8454 23.3383 49.8712 23.4155 49.897Z" fill="#7F7E7F"/>
<path d="M26.1467 49.9742C26.1467 49.9485 26.1467 49.9227 26.1467 49.8969C26.224 49.8969 26.3013 49.8712 26.327 49.9742C26.2755 49.9742 26.224 49.9742 26.1467 49.9742Z" fill="#7E7D7E"/>
<path d="M28.6716 13.5167C28.6716 16.6601 28.6716 19.8034 28.6716 22.9467C28.6716 24.3123 28.2336 25.4717 27.1257 26.2962C25.9405 27.198 24.6265 27.3526 23.2609 26.76C21.9211 26.1931 21.1482 25.1368 20.9678 23.6682C20.9163 23.2559 20.9163 22.8437 20.9163 22.4057C20.9163 16.3509 20.9163 10.2704 20.9163 4.21557C20.9163 3.10768 21.1739 2.07708 21.9469 1.2526C23.0806 0.09317 24.4461 -0.26754 25.992 0.19623C27.3833 0.60847 28.4654 1.94825 28.5943 3.36533C28.6458 3.8291 28.6458 4.2671 28.6458 4.73087C28.6716 7.66808 28.6716 10.5795 28.6716 13.5167Z" fill="#D1D1D1"/>
</svg>
