<svg width="111" height="111" viewBox="0 0 111 111" fill="none" xmlns="http://www.w3.org/2000/svg">
<path d="M70.6426 40.0981C83.5652 53.0341 83.3878 73.7738 70.7204 86.5115C70.6966 86.5375 70.6685 86.5656 70.6426 86.5915L56.108 101.126C43.2885 113.946 22.4321 113.944 9.61457 101.126C-3.20486 88.3089 -3.20486 67.45 9.61457 54.6327L17.6402 46.6071C19.7685 44.4788 23.4337 45.8934 23.5436 48.9011C23.6837 52.7342 24.3711 56.5852 25.6394 60.304C26.0689 61.5633 25.762 62.9562 24.8212 63.897L21.9906 66.7276C15.9289 72.7893 15.7388 82.6594 21.7408 88.7804C27.8021 94.9617 37.7648 94.9985 43.8725 88.8907L58.4071 74.3583C64.5045 68.2609 64.479 58.4055 58.4071 52.3336C57.6066 51.5346 56.8003 50.9139 56.1705 50.4802C55.7249 50.1742 55.357 49.7684 55.0961 49.295C54.8353 48.8216 54.6886 48.2938 54.6679 47.7537C54.5823 45.4682 55.3921 43.113 57.1981 41.307L61.7518 36.753C62.9459 35.5589 64.8192 35.4122 66.2039 36.3786C67.7897 37.4859 69.2749 38.7305 70.6426 40.0981ZM101.125 9.61398C88.3077 -3.20371 67.4512 -3.20544 54.6318 9.61398L40.0972 24.1486C40.0713 24.1745 40.0431 24.2027 40.0193 24.2286C27.3522 36.9663 27.1746 57.706 40.0972 70.642C41.4648 72.0095 42.95 73.2541 44.5357 74.3613C45.9204 75.3277 47.7938 75.1808 48.9878 73.9869L53.5415 69.4329C55.3475 67.6269 56.1573 65.2718 56.0716 62.9862C56.0509 62.4461 55.9043 61.9183 55.6434 61.4449C55.3826 60.9715 55.0147 60.5657 54.5691 60.2597C53.9393 59.826 53.1329 59.2053 52.3324 58.4063C46.2606 52.3344 46.2351 42.479 52.3324 36.3816L66.867 21.8492C72.9748 15.7414 82.9373 15.7782 88.9988 21.9595C95.0008 28.0805 94.8109 37.9506 88.749 44.0123L85.9184 46.8429C84.9775 47.7837 84.6706 49.1766 85.1002 50.4359C86.3685 54.1547 87.0559 58.0057 87.196 61.8388C87.3061 64.8465 90.9711 66.2611 93.0994 64.1328L101.125 56.1072C113.945 43.2901 113.945 22.4312 101.125 9.61398Z" fill="#3E82D0"/>
</svg>
