<svg width="69" height="112" viewBox="0 0 69 112" fill="none" xmlns="http://www.w3.org/2000/svg">
<path d="M46.9639 88.6309C48.3371 89.353 49.5868 90.0195 50.6144 91.0286C52.7313 93.1115 52.7683 95.5401 50.6329 97.586C48.3926 99.7337 45.5753 100.752 42.6252 101.4C35.4908 102.961 28.4335 102.81 21.5398 100.169C19.9537 99.5609 18.4971 98.6938 17.2968 97.4595C15.399 95.5092 15.3959 93.1887 17.2659 91.2168C18.3367 90.0843 19.7006 89.3777 21.08 88.634C19.5618 86.909 18.0898 85.2427 16.6271 83.5671C16.3834 83.2863 16.1859 83.1536 15.7569 83.2832C11.3041 84.6132 7.058 86.3567 3.56484 89.5289C1.58066 91.331 0.117981 93.4602 0.0747757 96.2899C0.0346603 98.9345 1.27208 101.021 3.06494 102.807C6.30814 106.041 10.3629 107.862 14.646 109.195C23.4375 111.932 32.4358 112.521 41.5606 111.586C47.6335 110.963 53.5274 109.655 59.0449 106.942C61.3346 105.816 63.4576 104.449 65.232 102.588C68.9195 98.7246 68.9535 94.1484 65.269 90.2788C62.3591 87.2207 58.6468 85.4772 54.7525 84.0732C51.8919 83.0425 51.8858 83.0764 49.8769 85.3692C48.9419 86.44 47.9822 87.4923 46.9639 88.6309Z" fill="#959595"/>
<path d="M2.21291 28.0563C2.32092 27.0657 2.44744 26.0659 2.68504 25.1001C5.86961 12.2723 13.7693 3.77703 26.6619 0.894868C39.6532 -2.00889 50.611 2.20943 58.7977 12.7444C64.022 19.4623 66.037 27.2571 64.7194 35.7431C63.8183 41.5599 61.2849 46.778 58.2978 51.777C52.0984 62.1516 44.174 71.1282 35.5491 79.5186C34.1821 80.8486 32.8644 80.7807 31.4079 79.3766C27.3346 75.4484 23.465 71.3288 19.8268 66.9932C14.4791 60.621 9.56026 53.9556 5.94985 46.4139C3.66017 41.6308 2.01542 36.6627 1.99999 31.031C2.05862 30.204 2.09565 29.124 2.21291 28.0563ZM22.9466 32C23.0854 37.6841 28.0444 42.3899 33.7377 42.2449C39.7396 42.0906 44.3282 37.2366 44.1863 31.1946C44.0505 25.4951 39.1533 20.8571 33.3952 20.9805C27.3747 21.1101 22.7985 25.9363 22.9466 32Z" fill="#FCFCFC"/>
</svg>
