<svg width="53" height="111" viewBox="0 0 53 111" fill="none" xmlns="http://www.w3.org/2000/svg">
<path d="M39.9483 111C36.8071 109.978 35.8737 107.592 35.5922 104.54C35.0588 98.7318 34.5402 92.9237 33.6808 87.1452C33.0437 82.9076 31.3249 79.0256 29.7099 75.0992C29.1469 73.7361 28.5839 72.3878 27.9319 70.8024C26.9837 73.7509 26.1095 76.492 25.2353 79.2183C22.5683 87.5601 19.9013 95.9167 17.2343 104.258C16.4342 106.792 14.7451 108.452 12.1225 108.763C9.5296 109.074 7.17374 108.348 5.60317 106.022C4.4771 104.333 4.50674 102.525 5.11422 100.643C8.83321 89.0417 12.5374 77.4403 16.2416 65.8536C16.4786 65.1276 16.5972 64.4016 16.5972 63.6311C16.5823 59.601 16.5823 55.556 16.5823 51.4666C16.2267 51.6 16.1823 51.8963 16.0786 52.1185C14.0783 56.0894 12.0781 60.0751 10.063 64.046C8.77394 66.5944 7.01076 67.1575 4.37339 66.1351C0.684031 64.7127 0.046914 62.7569 1.79528 59.1861C6.38846 49.7182 10.8186 40.1763 15.2637 30.6343C16.4638 28.0414 18.3603 26.8413 21.2051 26.8709C25.6057 26.9302 30.0063 26.9598 34.392 26.8561C37.1479 26.782 38.9259 28.2933 38.9111 31.1974C38.8815 35.1979 39.1333 39.1984 39.2667 43.1841C39.326 44.7991 39.9779 46.1622 41.0595 47.3476C44.4822 51.0962 47.89 54.8744 51.2978 58.6379C53.1647 60.6974 53.1351 62.5939 51.2386 64.6386C51.0163 64.8757 50.7941 65.1128 50.5718 65.3498C48.9568 66.9797 46.9566 66.9945 45.3415 65.3498C43.2227 63.1866 41.1484 60.9937 38.9259 58.8305C39.0741 61.0382 38.4073 63.2459 39.3408 65.4239C40.9113 69.054 42.6597 72.5952 43.8451 76.3735C44.9267 79.7961 45.386 83.3225 45.8305 86.8489C46.5121 92.2718 47.2825 97.6947 47.89 103.132C48.3641 107.251 46.1713 110.037 42.0819 110.822C41.993 110.837 41.9189 110.926 41.83 110.985C41.2521 111 40.6002 111 39.9483 111Z" fill="#FF3636"/>
<path d="M28.8209 23.8928C22.2868 23.9372 16.9972 18.6921 16.9676 12.1283C16.9231 5.60896 22.2127 0.27495 28.7172 0.260133C35.2217 0.2305 40.5706 5.53488 40.6002 12.0394C40.6298 18.5439 35.3551 23.8631 28.8209 23.8928Z" fill="#FF3636"/>
</svg>
