<svg width="25" height="13" viewBox="0 0 25 13" fill="none" xmlns="http://www.w3.org/2000/svg">
<path fill-rule="evenodd" clip-rule="evenodd" d="M21.25 2.5H14.6647L15.3523 0H21.875C22.9105 0 23.75 0.839453 23.75 1.875V2.5H24.0625C24.5803 2.5 25 2.91973 25 3.4375V9.0625C25 9.58027 24.5803 10 24.0625 10H23.75V10.625C23.75 11.6605 22.9105 12.5 21.875 12.5H13.3368L14.8188 10H21.25V7.5H22.5V5H21.25V2.5ZM7.56381 2.5L7.82223 0H1.875C0.839453 0 0 0.839453 0 1.875V10.625C0 11.6605 0.839453 12.5 1.875 12.5H9.88881L10.3008 10H2.5V2.5H7.56381ZM18.3524 4.03906L15.4116 9H20.5V3.5H18.4646C18.472 3.67935 18.4376 3.86532 18.3524 4.03906ZM7.00724 7.88437C6.94193 8.475 7.32692 9 7.82535 9H3.5V3.5H7.46044L7.00724 7.88437ZM12.9508 4.0625H15.4752C15.8798 4.0625 16.1314 4.57285 15.928 4.97656L12.078 12.6953C11.9818 12.8883 11.8068 13 11.623 13C11.2883 13 11.0346 12.6369 11.1133 12.251L12.1218 7.3125H9.52523C9.20804 7.3125 8.96304 6.9875 9.00461 6.62187L9.7046 0.528125C9.7396 0.225977 9.96272 0 10.2252 0H13.3752C13.7186 0 13.9702 0.380859 13.8827 0.766797L12.9508 4.0625Z" fill="white"/>
</svg>
