<svg width="25" height="13" viewBox="0 0 25 13" fill="none" xmlns="http://www.w3.org/2000/svg">
<path fill-rule="evenodd" clip-rule="evenodd" d="M21.25 5V2.5H2.5V10H21.25V7.5H22.5V5H21.25ZM1.875 0H21.875C22.9105 0 23.75 0.839453 23.75 1.875V2.5H24.0625C24.5803 2.5 25 2.91973 25 3.4375V9.0625C25 9.58027 24.5803 10 24.0625 10H23.75V10.625C23.75 11.6605 22.9105 12.5 21.875 12.5H1.875C0.839453 12.5 0 11.6605 0 10.625V1.875C0 0.839453 0.839453 0 1.875 0ZM20.5 3.5H3.5V9H20.5V3.5Z" fill="white"/>
</svg>
