<svg width="116" height="103" viewBox="0 0 116 103" fill="none" xmlns="http://www.w3.org/2000/svg">
<path d="M0 100.476C2.40849 94.5213 4.81981 88.5667 7.22546 82.6122C8.14176 80.3455 9.04955 78.0789 9.94884 75.8066C10.2439 75.0605 10.6666 74.4307 11.5431 74.4222C14.7346 74.3995 17.9289 74.4137 21.2565 74.4137C20.6806 75.5683 20.1785 76.6122 19.6395 77.6363C17.8693 81.0008 17.9856 84.2065 20.4424 87.205C20.726 87.5539 20.726 87.8433 20.6097 88.2263C19.3076 92.5468 18.014 96.8702 16.7176 101.194C16.4197 102.186 15.7502 102.694 14.7176 102.697C10.4907 102.703 6.2666 102.7 2.0397 102.7C1.078 102.7 0.422691 102.226 0 101.386C0 101.08 0 100.777 0 100.476Z" fill="white"/>
<path d="M36.2635 30.5276C35.6195 34.085 34.9755 37.6424 34.3372 41.2027C33.9287 43.475 34.7004 45.1998 36.7117 46.3288C41.1088 48.7969 45.5201 51.2366 49.9399 53.6678C50.5271 53.9912 50.8704 54.4394 51.2137 55.0124C54.2973 60.1358 55.4264 65.818 56.1668 71.6392C56.5555 74.703 57.12 77.7441 57.6363 80.7881C58.0959 83.4973 56.6207 85.7838 54.1101 86.1838C51.7186 86.5639 49.5938 84.9185 49.1655 82.3086C48.2435 76.6945 47.3385 71.0775 46.4421 65.4606C46.3712 65.0067 46.2577 64.584 46.0591 64.1726C44.3003 60.5131 42.5017 56.8706 40.8223 53.1713C40.3542 52.1444 39.6109 52.4536 38.95 52.4962C38.2237 52.5415 38.5925 53.2224 38.5897 53.5883C38.5585 57.6252 38.5528 61.662 38.5812 65.7017C38.5897 66.9754 38.3259 68.1414 37.7415 69.279C35.2989 74.0278 32.9018 78.8023 30.4649 83.554C29.2876 85.849 27.0607 86.7795 24.9189 85.9341C22.5813 85.0093 21.509 82.3994 22.6579 80.0335C24.5813 76.0761 26.5387 72.13 28.638 68.2662C29.6451 66.4109 30.0735 64.5641 30.0224 62.4648C29.9146 58.2805 29.9515 54.0876 30.0196 49.9004C30.0366 48.8565 29.7075 48.5728 28.7486 48.6919C28.2295 48.7572 27.6933 48.7004 27.1685 48.6749C26.0877 48.6182 25.3785 48.0281 25.1884 46.9955C25.0863 46.431 24.8593 46.3969 24.3941 46.3515C22.5728 46.1728 21.631 45.1856 21.5828 43.3189C21.526 41.1317 21.5289 38.9417 21.5828 36.7545C21.6281 34.885 22.5558 33.8637 24.3799 33.719C25.0806 33.6623 25.1345 33.3985 25.1288 32.8339C25.1061 30.4198 25.1118 28.0028 25.1203 25.5886C25.1288 23.7418 25.8749 22.9759 27.7132 22.9475C29.2224 22.922 30.7316 22.9277 32.2408 22.9503C32.7344 22.9589 33.089 22.8255 33.4096 22.434C34.6521 20.9107 36.3344 20.3433 38.2294 20.4482C40.6379 20.5816 43.0464 20.7716 45.4463 21.0298C48.3995 21.3475 50.5924 23.7532 50.4562 26.7319C50.2803 30.6098 49.8917 34.4765 49.5853 38.4935C48.4279 37.8381 47.3641 37.2254 46.2889 36.6296C45.94 36.4367 45.9002 36.0793 45.7953 35.7758C45.0776 33.668 44.4847 31.5176 43.4549 29.4808C43.679 32.5701 43.9031 35.6594 44.1215 38.7488C44.1556 39.2395 44.5953 39.2963 44.8988 39.4693C47.9655 41.231 51.0491 42.9672 54.1129 44.7345C55.7668 45.6877 56.4306 47.109 56.0079 48.6721C55.4377 50.7912 53.2448 51.9515 51.3158 50.9132C47.1428 48.6636 43.0464 46.2749 38.9414 43.9033C37.8379 43.265 37.4663 42.1445 37.384 40.9218C37.14 37.3077 36.8932 33.6963 36.6493 30.0822C36.5301 29.8382 36.5074 29.5971 36.6351 29.4099C36.4904 29.7333 36.3854 30.1333 36.2635 30.5276Z" fill="#FFDB59"/>
<path d="M81.9991 39.6225C82.0076 39.6963 82.036 39.7786 82.0189 39.8466C81.4005 42.4424 82.5693 44.0197 84.8047 45.2196C86.4529 46.1047 87.9395 47.3047 89.46 48.4168C90.6515 49.2877 91.0061 50.4962 90.5238 51.6848C90.0784 52.7799 89.0089 53.4494 87.8458 53.3586C87.182 53.3075 86.6288 52.9869 86.1012 52.621C83.409 50.7515 80.7253 48.8678 78.0275 47.004C76.9722 46.275 76.5155 45.3104 76.5353 44.0253C76.5779 41.2339 76.5495 38.4424 76.5495 35.6481C76.4417 35.6736 76.3708 35.9148 76.314 36.1219C75.6077 38.7346 74.9126 41.3502 74.2119 43.9658C73.6644 46.0196 74.0814 47.2565 75.8091 48.4707C78.7991 50.5756 81.8033 52.655 84.8047 54.743C86.0898 55.6366 87.4856 56.1302 89.06 55.733C89.5565 55.6082 89.7465 55.7387 89.826 56.2124C90.0557 57.5486 90.3423 58.8762 90.5352 60.2181C90.7338 61.5911 90.1352 62.2408 88.7196 62.3032C88.4614 62.3145 88.2033 62.306 87.8487 62.306C88.3678 64.0365 89.3125 65.506 89.7238 67.1854C90.8983 71.9711 92.1437 76.7427 93.3522 81.52C93.9224 83.7781 92.9408 85.6334 90.9266 86.1356C89.0146 86.6121 87.2671 85.4093 86.7083 83.2079C85.565 78.7229 84.4303 74.235 83.2927 69.7499C82.6686 67.2875 81.3863 65.0946 80.4502 62.7571C80.1409 61.9854 79.4856 62.3542 78.9807 62.3259C78.3367 62.289 78.5438 62.8563 78.5778 63.1599C79.1395 67.9286 77.8431 72.2974 75.8686 76.5668C74.8133 78.8505 74.002 81.2448 73.0658 83.5824C72.1807 85.7866 70.3538 86.7256 68.4361 85.9824C66.5241 85.2419 65.8007 83.2703 66.6602 81.0803C67.8716 78.0023 69.0177 74.8931 70.351 71.8662C71.3751 69.54 71.8744 67.1967 71.7354 64.6521C71.6105 62.34 71.7098 62.3344 69.3581 62.3088C67.5595 62.289 66.9865 61.5911 67.3155 59.8294C67.8063 57.1997 68.2886 54.5699 68.7907 51.943C68.9099 51.3104 69.0148 50.743 68.0616 50.8224C67.9567 50.8309 67.812 50.7941 67.7439 50.7231C66.6574 49.6026 65.1964 48.9274 64.1298 47.8239C63.2021 46.865 63.3383 41.3644 64.1127 40.2693C64.473 39.7587 64.9411 39.3615 65.5624 39.2793C66.2489 39.1885 66.3538 38.8254 66.3368 38.2098C66.2943 36.5502 66.3113 34.8907 66.3255 33.2283C66.3425 31.5006 67.0943 30.7375 68.7935 30.6978C69.3581 30.6836 69.9254 30.6836 70.4928 30.6978C71.7183 30.729 72.8843 30.8482 73.6701 29.478C74.1524 28.6383 75.2218 28.4794 76.1977 28.4766C77.897 28.4709 79.5934 28.4709 81.2927 28.4766C83.4799 28.4822 84.853 29.4382 85.2728 31.5432C86.0841 35.5999 86.7735 39.6821 87.5678 44.0537C86.1834 43.0835 85.0118 42.258 83.8374 41.4353C83.6303 41.2906 83.5877 41.0778 83.5395 40.8537C83.1537 39.0892 82.7622 37.3275 82.3707 35.563C81.7977 35.5261 82.0927 35.9602 82.0814 36.1644C82.0189 37.3162 82.1551 38.4736 81.9991 39.6225Z" fill="#FFDB59"/>
<path d="M107.593 102.694C105.63 102.694 103.67 102.697 101.707 102.694C100.01 102.691 99.5962 102.391 99.1168 100.794C97.8998 96.7596 96.7055 92.7199 95.4629 88.6972C95.2757 88.0902 95.3267 87.6902 95.7296 87.1739C97.1906 85.3044 97.5735 83.1767 96.9948 80.8789C96.5182 78.981 96.053 77.0803 95.5452 75.191C95.3721 74.5499 95.5111 74.3683 96.1948 74.3797C98.7593 74.4194 101.327 74.4165 103.891 74.3853C104.935 74.374 105.582 74.8108 105.965 75.7754C109.176 83.8037 112.41 91.8234 115.619 99.8546C116.302 101.565 115.553 102.666 113.701 102.694C111.67 102.717 109.63 102.694 107.593 102.694Z" fill="white"/>
<path d="M41.6422 102.694C39.6053 102.694 37.5713 102.706 35.5344 102.691C33.6763 102.68 32.9586 101.857 33.316 100.059C34.8053 92.5667 36.3117 85.0803 37.8294 77.5938C38.0422 76.5498 38.7287 75.6988 39.1457 74.7371C39.3046 74.3683 39.594 74.3938 39.8947 74.3938C41.0634 74.391 42.2351 74.4279 43.401 74.3797C43.9967 74.3541 44.1358 74.5896 44.218 75.1343C44.6123 77.7385 45.0719 80.3342 45.4889 82.9356C45.9769 85.9597 47.5939 88.1242 50.4052 89.3412C50.9215 89.5653 51.0633 89.7781 51.0094 90.3284C50.6662 93.8546 50.374 97.3837 50.0392 100.91C49.9229 102.133 49.2506 102.677 47.8662 102.689C45.7896 102.711 43.7159 102.694 41.6422 102.694Z" fill="white"/>
<path d="M64.6858 87.9C66.9383 89.7468 69.256 90.334 71.8205 89.5539C74.1467 88.8475 75.6048 87.1993 76.4843 84.9894C77.1311 83.3611 77.775 81.7327 78.5325 79.815C79.1083 82.6519 79.6275 85.188 80.1381 87.727C80.9466 91.744 81.7438 95.7638 82.5579 99.7808C82.9835 101.874 82.3452 102.694 80.2232 102.694C76.2658 102.7 72.3112 102.7 68.3538 102.694C66.5241 102.691 66.0163 102.223 65.8489 100.416C65.4688 96.3311 65.0886 92.2461 64.6858 87.9Z" fill="white"/>
<path d="M34.3203 8.63846C34.3401 3.90375 38.2805 -0.03096 42.9641 0.00024538C47.6705 0.0342876 51.6137 3.99169 51.5995 8.66966C51.5825 13.359 47.6109 17.3192 42.9329 17.305C38.2181 17.288 34.3004 13.3476 34.3203 8.63846Z" fill="#FFDB59"/>
<path d="M78.768 25.5234C74.8219 25.4355 71.5766 22.1163 71.6333 18.2242C71.69 14.1703 75.0432 10.9335 79.0829 11.0299C83.0233 11.1235 86.2573 14.4824 86.1495 18.3689C86.0388 22.4114 82.7367 25.6142 78.768 25.5234Z" fill="#FFDB59"/>
<path d="M63.9511 77.8973C63.2447 75.9626 63.6419 74.8534 65.2589 74.4222C64.961 75.6619 64.405 76.7314 63.9511 77.8973Z" fill="#121212"/>
<path d="M81.9991 39.6225C81.8119 38.2949 81.9821 36.9644 81.9736 35.6339C81.9736 35.4495 81.9055 35.1318 82.263 35.1885C82.4474 35.2169 82.3991 35.4155 82.3736 35.5602C81.8942 36.8821 82.3623 38.292 81.9991 39.6225Z" fill="#393939"/>
<path d="M36.2636 30.5276C36.1643 30.0737 36.4394 29.7304 36.5444 29.2283C36.7203 29.5886 36.726 29.8325 36.6465 30.0822C36.516 30.2297 36.3912 30.3772 36.2636 30.5276Z" fill="#9E9E9E"/>
<path d="M43.6393 28.8539C43.679 29.0496 43.6081 29.1347 43.5003 29.1092C43.4208 29.0893 43.3215 28.9929 43.3017 28.9134C43.2818 28.834 43.3471 28.7319 43.3754 28.6383C43.4776 28.7234 43.5768 28.8056 43.6393 28.8539Z" fill="#444444"/>
</svg>
