<svg width="24" height="23" viewBox="0 0 24 23" fill="none" xmlns="http://www.w3.org/2000/svg">
<path d="M22.9769 12.2711C22.9619 13.0169 22.6145 13.597 21.9875 14.0062C21.5544 14.2894 21.0714 14.353 20.5698 14.3242C20.4276 14.3158 20.3634 14.3584 20.3184 14.5012C20.2386 14.7568 20.1588 15.0219 20.0197 15.2463C19.7887 15.6189 19.8415 15.8589 20.1642 16.1799C20.9382 16.9514 20.9496 18.1886 20.2314 18.9871C19.8367 19.4257 19.4155 19.8439 18.9769 20.2386C18.4807 20.6856 17.8796 20.8212 17.222 20.7096C16.679 20.6172 16.2621 20.3136 15.9063 19.9153C15.8109 19.8085 15.7335 19.7941 15.6045 19.8601C15.3663 19.9818 15.1257 20.1234 14.8689 20.1816C14.4262 20.2824 14.299 20.505 14.3074 20.9634C14.326 21.9359 13.549 22.7963 12.5933 22.9439C11.9693 23.0399 11.3387 22.9847 10.7118 22.9799C9.85323 22.9739 9.09488 22.4117 8.78949 21.6066C8.6587 21.261 8.6485 20.9052 8.6611 20.5464C8.6653 20.4204 8.6257 20.367 8.50391 20.3262C8.23573 20.2368 7.95074 20.1624 7.71736 20.0124C7.34058 19.7701 7.11199 19.8667 6.80661 20.1684C6.00985 20.9556 4.77213 20.9484 3.94777 20.1888C3.541 19.8139 3.14862 19.4215 2.77604 19.0129C2.30747 18.5005 2.15808 17.885 2.27987 17.2016C2.37526 16.667 2.67885 16.2591 3.07002 15.9075C3.17562 15.8127 3.19302 15.7365 3.12642 15.6051C2.99803 15.3531 2.89243 15.0897 2.78264 14.8287C2.71604 14.671 2.70164 14.4604 2.58705 14.3626C2.46166 14.2552 2.24447 14.3326 2.06748 14.3272C1.16993 14.3014 0.389978 13.726 0.104994 12.8783C0.0707959 12.7757 0.0809954 12.6575 0 12.5705C0 11.8523 0 11.1342 0 10.4154C0.109794 9.63844 0.547769 9.11228 1.24673 8.78709C1.58751 8.6287 1.94809 8.5801 2.31947 8.6077C2.48806 8.6203 2.58105 8.55251 2.63505 8.39232C2.71784 8.14453 2.79344 7.88895 2.92723 7.66456C3.11382 7.35198 3.06042 7.13959 2.79344 6.8768C2.08368 6.17904 1.98049 5.07811 2.51086 4.23215C2.84864 3.69459 3.33761 3.28841 3.78758 2.85224C4.35575 2.30207 5.03251 2.06928 5.82327 2.23247C6.30924 2.33267 6.71061 2.58285 7.0424 2.94523C7.15999 3.07362 7.27278 3.10542 7.43657 3.02623C7.75335 2.87383 8.07734 2.73704 8.41152 2.62605C8.55491 2.57865 8.6095 2.49166 8.60711 2.34226C8.6041 2.12628 8.58371 1.90789 8.6395 1.6943C8.88189 0.763756 9.43326 0.15719 10.4142 0C11.1024 0 11.7911 0 12.4793 0C12.5045 0.0114002 12.5285 0.0299988 12.5549 0.0341988C13.114 0.121794 13.558 0.401978 13.9012 0.845951C14.2588 1.30853 14.359 1.84249 14.3236 2.41066C14.3152 2.54985 14.3506 2.61825 14.497 2.66385C14.767 2.74724 15.0489 2.82884 15.2835 2.97823C15.6417 3.20621 15.8595 3.13482 16.1577 2.83664C16.967 2.02668 18.2114 2.03208 19.0507 2.80904C19.4509 3.17982 19.8373 3.568 20.205 3.97057C20.673 4.48294 20.8266 5.09791 20.703 5.78067C20.6172 6.25524 20.3826 6.65122 20.0245 6.9626C19.8241 7.13659 19.7683 7.28238 19.9231 7.51937C20.0394 7.69756 20.1354 7.90514 20.1786 8.11213C20.271 8.55431 20.496 8.6857 20.9574 8.6761C21.9311 8.6557 22.7855 9.42546 22.9397 10.3878C23.0417 11.013 22.9889 11.6441 22.9769 12.2711ZM21.636 10.7844C21.6306 10.3314 21.3096 10.014 20.8554 10.0068C20.5488 10.002 20.2422 10.008 19.9351 10.005C19.5511 10.0008 19.3141 9.82623 19.2139 9.45965C19.0237 8.7655 18.7495 8.10733 18.3949 7.48097C18.1946 7.12759 18.2354 6.86481 18.5227 6.57082C18.7267 6.36263 18.9373 6.16045 19.1401 5.95046C19.4917 5.58628 19.4935 5.1555 19.1431 4.79852C18.8239 4.47274 18.5017 4.14936 18.1748 3.83078C17.8346 3.499 17.3972 3.4966 17.0552 3.82418C16.8338 4.03597 16.6226 4.25916 16.4031 4.47274C16.1187 4.74873 15.8517 4.78832 15.5097 4.59334C14.8839 4.23696 14.2258 3.96337 13.5322 3.77198C13.1524 3.66759 12.9827 3.4342 12.9797 3.03403C12.9773 2.73464 12.9827 2.43526 12.9785 2.13648C12.9719 1.6685 12.6545 1.35232 12.1859 1.34812C11.7221 1.34392 11.2584 1.34392 10.7946 1.34812C10.3278 1.35292 10.0122 1.6715 10.0062 2.14128C10.002 2.44786 10.0086 2.75444 10.0044 3.06162C9.99903 3.4324 9.82324 3.67239 9.46926 3.76898C8.7673 3.96037 8.10313 4.23756 7.47077 4.59633C7.13119 4.78892 6.85941 4.74573 6.57802 4.47034C6.36383 4.26095 6.15745 4.04497 5.94206 3.83678C5.58988 3.4966 5.1525 3.4948 4.80632 3.83378C4.48054 4.15296 4.15776 4.47574 3.83798 4.80152C3.4954 5.1507 3.4936 5.58808 3.83138 5.93726C4.03957 6.15205 4.25616 6.35903 4.46494 6.57322C4.74993 6.86481 4.78892 7.13119 4.58794 7.48517C4.23576 8.10433 3.96517 8.7559 3.77498 9.44226C3.66519 9.83763 3.4396 10.0032 3.02323 10.0056C2.72384 10.0074 2.42446 10.002 2.12568 10.0074C1.6727 10.0152 1.35592 10.335 1.34872 10.7886C1.34512 11.028 1.34812 11.2674 1.34812 11.5067C1.34812 11.7461 1.34332 11.9855 1.34932 12.2249C1.36072 12.6527 1.6787 12.9695 2.10768 12.9779C2.42146 12.9845 2.73584 12.9767 3.05022 12.9803C3.4354 12.9845 3.67119 13.1578 3.77138 13.5262C3.96037 14.221 4.23576 14.8785 4.59034 15.5049C4.78952 15.8571 4.74933 16.1229 4.46254 16.4157C4.25316 16.6292 4.03657 16.8362 3.82898 17.0516C3.499 17.3942 3.4966 17.8322 3.82658 18.1706C4.15536 18.5077 4.48834 18.8419 4.82672 19.1701C5.1495 19.4827 5.58568 19.4851 5.91266 19.1767C6.14125 18.9613 6.35663 18.7321 6.58162 18.5131C6.86361 18.2384 7.13419 18.1976 7.47557 18.3919C8.10133 18.7477 8.7589 19.0219 9.45306 19.2133C9.82444 19.3159 10.0008 19.5475 10.0062 19.9285C10.0104 20.235 10.0038 20.5416 10.008 20.8488C10.0146 21.318 10.3302 21.6336 10.8 21.6378C11.2638 21.642 11.7275 21.642 12.1913 21.6378C12.6587 21.6336 12.9743 21.3156 12.9803 20.8464C12.9845 20.547 12.9791 20.2482 12.9815 19.9489C12.9851 19.5505 13.156 19.3183 13.537 19.2133C14.2234 19.0237 14.8761 18.7555 15.4947 18.4015C15.8577 18.194 16.1217 18.2342 16.4241 18.5311C16.6322 18.7351 16.8344 18.9457 17.0438 19.1491C17.3948 19.4899 17.8322 19.4929 18.179 19.1533C18.5107 18.8293 18.8389 18.5017 19.1623 18.1694C19.4845 17.8382 19.4875 17.402 19.1707 17.0666C18.9547 16.8386 18.7255 16.6232 18.5071 16.3971C18.242 16.1229 18.1988 15.8493 18.3859 15.5217C18.7471 14.8899 19.0237 14.2258 19.2163 13.5238C19.3165 13.1584 19.5541 12.9857 19.9405 12.9815C20.247 12.9779 20.5536 12.9845 20.8608 12.9797C21.3138 12.9725 21.6336 12.6539 21.6384 12.1997C21.6414 11.7269 21.642 11.2554 21.636 10.7844Z" fill="white" fill-opacity="0.85"/>
<path d="M11.4959 16.49C8.7397 16.4936 6.50843 14.2702 6.49523 11.5079C6.48203 8.74749 8.7223 6.49882 11.4887 6.49522C14.2438 6.49162 16.4769 8.71689 16.4895 11.4785C16.5015 14.2402 14.263 16.4864 11.4959 16.49ZM11.4887 7.84154C9.47166 7.84454 7.84335 9.47405 7.84215 11.4905C7.84095 13.5076 9.46626 15.1377 11.4845 15.1431C13.4998 15.1491 15.1329 13.5256 15.1425 11.5061C15.1515 9.48305 13.5124 7.83914 11.4887 7.84154Z" fill="white" fill-opacity="0.85"/>
</svg>
