<svg width="23" height="21" viewBox="0 0 23 21" fill="none" xmlns="http://www.w3.org/2000/svg">
<path d="M0.821429 3.69643H22.1786C22.6323 3.69643 23 3.32869 23 2.875V0.821429C23 0.367743 22.6323 0 22.1786 0H0.821429C0.367743 0 0 0.367743 0 0.821429V2.875C0 3.32869 0.367743 3.69643 0.821429 3.69643ZM0.821429 11.9107H14.1943C14.648 11.9107 15.0157 11.543 15.0157 11.0893V9.03571C15.0157 8.58203 14.648 8.21429 14.1943 8.21429H0.821429C0.367743 8.21429 0 8.58203 0 9.03571V11.0893C0 11.543 0.367743 11.9107 0.821429 11.9107ZM0.821429 20.125H22.1786C22.6323 20.125 23 19.7573 23 19.3036V17.25C23 16.7963 22.6323 16.4286 22.1786 16.4286H0.821429C0.367743 16.4286 0 16.7963 0 17.25V19.3036C0 19.7573 0.367743 20.125 0.821429 20.125Z" fill="white" fill-opacity="0.85"/>
</svg>
