<svg width="122" height="156" viewBox="0 0 122 156" fill="none" xmlns="http://www.w3.org/2000/svg">
<path d="M42.65 88.321C43.1513 86.0246 45.1844 84.3874 47.5349 84.3874H72.5424C74.8678 84.3874 76.8862 85.9905 77.4126 88.2556L91.5912 149.266C92.3197 152.401 89.9395 155.398 86.721 155.398H34.2157C31.0246 155.398 28.6501 152.449 29.3307 149.332L42.65 88.321Z" fill="#565D69"/>
<path d="M11.1748 101.048C11.683 100.032 12.7218 99.3896 13.8581 99.3896H107.165C108.301 99.3896 109.34 100.032 109.848 101.048L118.85 119.052C119.847 121.046 118.397 123.393 116.166 123.393H4.8563C2.62615 123.393 1.17567 121.046 2.17302 119.052L11.1748 101.048Z" fill="#565D69"/>
<path d="M60.5112 93.3887V101.89" stroke="#DDDDDD" stroke-width="4" stroke-linecap="round"/>
<path d="M60.5112 110.891V119.393" stroke="#DDDDDD" stroke-width="4" stroke-linecap="round"/>
<path d="M38.5081 109.891L30.0068 109.891" stroke="#DDDDDD" stroke-width="4" stroke-linecap="round"/>
<path d="M90.5161 109.891L82.0148 109.891" stroke="#DDDDDD" stroke-width="4" stroke-linecap="round"/>
<path d="M104.018 109.891L100.017 109.891" stroke="#DDDDDD" stroke-width="4" stroke-linecap="round"/>
<path d="M21.0054 109.891L17.0048 109.891" stroke="#DDDDDD" stroke-width="4" stroke-linecap="round"/>
<path d="M60.5112 128.894V137.395" stroke="#DDDDDD" stroke-width="4" stroke-linecap="round"/>
<path d="M80 58V99.3693" stroke="#D1D1D1" stroke-width="4" stroke-linecap="round"/>
<rect x="80" width="54.5102" height="54.5102" rx="9" transform="rotate(45 80 0)" fill="#FFDB59"/>
<path d="M80.0001 34.5C77.2001 34.5 76.8334 37.5 77.0001 39C77.1667 40.1667 78.1 42.5 80.5 42.5C82.9 42.5 83.5 40.1667 83.5 39C83.5 37.5 82.8001 34.5 80.0001 34.5Z" stroke="black"/>
<path d="M85.5 34.5C85.8333 37.3333 86.8 42.8 88 42C89.2 41.2 89.8333 37 90 35C90.6667 37.5 92.2 42.5 93 42.5C93.8 42.5 94.6667 37.1667 95 34.5" stroke="black"/>
<path d="M69.132 40.624C69.132 41.128 69.008 41.568 68.76 41.944C68.512 42.32 68.152 42.612 67.68 42.82C67.216 43.02 66.648 43.12 65.976 43.12C65.68 43.12 65.388 43.1 65.1 43.06C64.82 43.02 64.548 42.964 64.284 42.892C64.028 42.812 63.784 42.716 63.552 42.604V40.912C63.96 41.088 64.38 41.252 64.812 41.404C65.252 41.548 65.688 41.62 66.12 41.62C66.416 41.62 66.652 41.58 66.828 41.5C67.012 41.42 67.144 41.312 67.224 41.176C67.312 41.04 67.356 40.884 67.356 40.708C67.356 40.492 67.28 40.308 67.128 40.156C66.984 40.004 66.788 39.864 66.54 39.736C66.292 39.6 66.008 39.456 65.688 39.304C65.488 39.208 65.272 39.096 65.04 38.968C64.808 38.832 64.584 38.668 64.368 38.476C64.16 38.276 63.988 38.036 63.852 37.756C63.716 37.476 63.648 37.14 63.648 36.748C63.648 36.236 63.764 35.8 63.996 35.44C64.236 35.072 64.572 34.792 65.004 34.6C65.444 34.408 65.96 34.312 66.552 34.312C67 34.312 67.424 34.364 67.824 34.468C68.232 34.572 68.656 34.72 69.096 34.912L68.508 36.328C68.116 36.168 67.764 36.044 67.452 35.956C67.14 35.868 66.82 35.824 66.492 35.824C66.268 35.824 66.076 35.86 65.916 35.932C65.756 36.004 65.632 36.104 65.544 36.232C65.464 36.36 65.424 36.512 65.424 36.688C65.424 36.888 65.484 37.06 65.604 37.204C65.724 37.34 65.904 37.472 66.144 37.6C66.384 37.728 66.684 37.88 67.044 38.056C67.484 38.264 67.856 38.48 68.16 38.704C68.472 38.928 68.712 39.192 68.88 39.496C69.048 39.8 69.132 40.176 69.132 40.624ZM70.3294 43V34.432H72.1414V41.5H75.6214V43H70.3294ZM84.2962 38.704C84.2962 39.368 84.2122 39.972 84.0442 40.516C83.8842 41.052 83.6362 41.516 83.3002 41.908C82.9722 42.3 82.5482 42.6 82.0282 42.808C81.5162 43.016 80.9122 43.12 80.2162 43.12C79.5202 43.12 78.9122 43.016 78.3922 42.808C77.8802 42.592 77.4562 42.292 77.1202 41.908C76.7922 41.516 76.5442 41.048 76.3762 40.504C76.2162 39.96 76.1362 39.356 76.1362 38.692C76.1362 37.804 76.2802 37.032 76.5682 36.376C76.8642 35.72 77.3122 35.212 77.9122 34.852C78.5202 34.484 79.2922 34.3 80.2282 34.3C81.1562 34.3 81.9202 34.484 82.5202 34.852C83.1202 35.212 83.5642 35.724 83.8522 36.388C84.1482 37.044 84.2962 37.816 84.2962 38.704ZM78.0442 38.704C78.0442 39.304 78.1202 39.82 78.2722 40.252C78.4242 40.684 78.6602 41.016 78.9802 41.248C79.3002 41.48 79.7122 41.596 80.2162 41.596C80.7362 41.596 81.1522 41.48 81.4642 41.248C81.7842 41.016 82.0162 40.684 82.1602 40.252C82.3122 39.82 82.3882 39.304 82.3882 38.704C82.3882 37.8 82.2202 37.092 81.8842 36.58C81.5482 36.068 80.9962 35.812 80.2282 35.812C79.7162 35.812 79.3002 35.928 78.9802 36.16C78.6602 36.392 78.4242 36.724 78.2722 37.156C78.1202 37.588 78.0442 38.104 78.0442 38.704ZM96.1178 34.432L93.9338 43H91.8698L90.7058 38.5C90.6818 38.412 90.6498 38.28 90.6098 38.104C90.5778 37.928 90.5378 37.736 90.4898 37.528C90.4498 37.32 90.4138 37.124 90.3818 36.94C90.3498 36.748 90.3258 36.6 90.3098 36.496C90.3018 36.6 90.2778 36.748 90.2378 36.94C90.2058 37.124 90.1698 37.32 90.1298 37.528C90.0898 37.728 90.0498 37.92 90.0098 38.104C89.9698 38.28 89.9378 38.416 89.9138 38.512L88.7618 43H86.6978L84.5138 34.432H86.3018L87.3938 39.112C87.4258 39.248 87.4618 39.416 87.5018 39.616C87.5418 39.808 87.5818 40.012 87.6218 40.228C87.6618 40.436 87.6978 40.64 87.7298 40.84C87.7698 41.04 87.7978 41.212 87.8138 41.356C87.8298 41.204 87.8538 41.032 87.8858 40.84C87.9178 40.64 87.9538 40.44 87.9938 40.24C88.0338 40.032 88.0698 39.84 88.1018 39.664C88.1418 39.48 88.1778 39.336 88.2098 39.232L89.4578 34.432H91.1738L92.4218 39.232C92.4458 39.336 92.4778 39.48 92.5178 39.664C92.5578 39.84 92.5978 40.032 92.6378 40.24C92.6778 40.448 92.7138 40.652 92.7458 40.852C92.7778 41.044 92.8018 41.212 92.8178 41.356C92.8418 41.156 92.8778 40.92 92.9258 40.648C92.9738 40.368 93.0258 40.088 93.0818 39.808C93.1458 39.528 93.1978 39.296 93.2378 39.112L94.3298 34.432H96.1178Z" fill="black"/>
<path d="M68.5 35.5C67.1667 35 64.5 34.5 64.5 36.5C64.5 39 68 38 68 39.5C68 41 68 42 67 42.5C66.2 42.9 64.6667 42 64 41.5" stroke="black"/>
<path d="M71 34.5V42H75.5" stroke="black"/>
<path d="M108 38L80 66" stroke="#1B1B1B" stroke-width="2" stroke-linecap="round"/>
<path d="M80 66L52 38" stroke="#1B1B1B" stroke-width="2" stroke-linecap="round"/>
<path d="M52 38L80 10" stroke="#1B1B1B" stroke-width="2" stroke-linecap="round"/>
<path d="M80 10L108 38" stroke="#1B1B1B" stroke-width="2" stroke-linecap="round"/>
</svg>
