<svg width="111" height="111" viewBox="0 0 111 111" fill="none" xmlns="http://www.w3.org/2000/svg">
<path d="M65.7697 87.793C66.7832 88.8065 66.7832 90.4498 65.7697 91.4636L56.1072 101.126C43.2893 113.944 22.4327 113.945 9.61373 101.126C-3.20436 88.3077 -3.20436 67.4509 9.61373 54.6328L19.2764 44.9701C20.2899 43.9566 21.9333 43.9566 22.947 44.9701L31.5116 53.5347C32.5251 54.5482 32.5251 56.1916 31.5116 57.2053L21.8489 66.8678C15.7773 72.9396 15.7773 82.819 21.8489 88.8908C27.9206 94.9625 37.8002 94.9627 43.8722 88.8908L53.5347 79.2284C54.5482 78.2149 56.1916 78.2149 57.2053 79.2284L65.7697 87.793ZM53.5347 31.5114C54.5482 32.5249 56.1916 32.5249 57.2053 31.5114L66.8678 21.8489C72.9394 15.7766 82.819 15.7771 88.8911 21.8489C94.9627 27.9208 94.9627 37.8002 88.8911 43.872L79.2284 53.5345C78.2149 54.548 78.2149 56.1913 79.2284 57.2051L87.793 65.7697C88.8065 66.7832 90.4498 66.7832 91.4636 65.7697L101.126 56.107C113.945 43.2887 113.945 22.432 101.126 9.61373C88.3077 -3.20436 67.4513 -3.20436 54.6328 9.61373L44.9703 19.2762C43.9568 20.2897 43.9568 21.9331 44.9703 22.9468L53.5347 31.5114ZM104.325 109.219L109.219 104.325C111.246 102.298 111.246 99.0114 109.219 96.9843L13.7556 1.52045C11.7284 -0.506817 8.44167 -0.506817 6.41461 1.52045L1.52045 6.41461C-0.506817 8.44188 -0.506817 11.7286 1.52045 13.7556L96.9841 109.219C99.0114 111.246 102.298 111.246 104.325 109.219Z" fill="#D03E7C"/>
</svg>
